<?xml version="1.0"?>
<svg xmlns="http://www.w3.org/2000/svg" viewBox="0 0 50 50">
    <path d="M43.911,12.003L43.911,12.003L27.069,2.54c-1.276-0.717-2.861-0.717-4.138,0L6.089,12.003C4.801,12.727,4,14.081,4,15.537 v18.927c0,1.455,0.8,2.809,2.089,3.533l16.842,9.464c0.638,0.358,1.354,0.538,2.069,0.538s1.431-0.179,2.069-0.538l16.842-9.463 C45.2,37.272,46,35.918,46,34.463V15.537C46,14.081,45.199,12.727,43.911,12.003z M25,37c-6.617,0-12-5.383-12-12s5.383-12,12-12 c3.78,0,7.275,1.755,9.542,4.741l-4.38,2.536C28.844,18.837,26.973,18,25,18c-3.86,0-7,3.14-7,7s3.14,7,7,7 c1.973,0,3.844-0.837,5.162-2.277l4.38,2.536C32.275,35.245,28.78,37,25,37z M37,26h-2v2h-2v-2h-2v-2h2v-2h2v2h2V26z M44,26h-2v2h-2 v-2h-2v-2h2v-2h2v2h2V26z"/>
</svg>
